<?xml version="1.0" encoding="utf-8"?>
<!-- Generator: Adobe Illustrator 17.0.0, SVG Export Plug-In . SVG Version: 6.00 Build 0)  -->
<!DOCTYPE svg PUBLIC "-//W3C//DTD SVG 1.1//EN" "http://www.w3.org/Graphics/SVG/1.1/DTD/svg11.dtd">
<svg version="1.1" id="Layer_1" xmlns="http://www.w3.org/2000/svg" xmlns:xlink="http://www.w3.org/1999/xlink" x="0px" y="0px"
	 width="500px" height="200px" viewBox="0 0 500 200" enable-background="new 0 0 500 200" xml:space="preserve">
<g>
	<g>
		<path d="M9.321,107.708c28.977-10.02,58.239-19.261,89.244-18.717c24.899,0.437,45.614,18.413,70.637,18.115
			c13.42-0.16,26.124-7.393,38.3-12.261c6.497-2.597,13.104-4.873,19.916-6.488c7.988-1.893,16.107-1.778,24.259-1.592
			c16.246,0.37,32.439,2.254,48.458,4.909c15.627,2.59,30.651,6.888,46.004,10.656c12.327,3.026,24.224,4.069,36.767,1.861
			c12.159-2.139,23.739-7.007,34.951-12.015c11.988-5.354,23.697-11.325,35.992-15.969c12.577-4.75,25.468-6.029,38.674-7.953
			c3.181-0.463,1.823-5.281-1.329-4.821c-13.802,2.011-26.986,3.539-40.125,8.501c-12.202,4.609-23.859,10.565-35.736,15.925
			c-12.467,5.626-25.474,10.697-39.145,12.313c-14.803,1.75-29.259-2.68-43.382-6.541c-29.887-8.169-61.525-12.308-92.51-11.929
			c-14.199,0.174-27.745,5.651-40.671,10.984c-13.062,5.39-25.245,11.037-39.696,8.764c-11.503-1.809-22.262-7.075-33.052-11.192
			c-11.794-4.499-23.159-6.496-35.777-6.267c-28.705,0.521-56.248,9.604-83.11,18.893C4.964,103.933,6.265,108.764,9.321,107.708
			L9.321,107.708z"/>
	</g>
</g>
</svg>
