<?xml version="1.0" encoding="utf-8"?>
<!-- Generator: Adobe Illustrator 18.0.0, SVG Export Plug-In . SVG Version: 6.00 Build 0)  -->
<!DOCTYPE svg PUBLIC "-//W3C//DTD SVG 1.1//EN" "http://www.w3.org/Graphics/SVG/1.1/DTD/svg11.dtd">
<svg version="1.1" id="Layer_1" xmlns="http://www.w3.org/2000/svg" xmlns:xlink="http://www.w3.org/1999/xlink" x="0px" y="0px"
	 viewBox="0 0 1024 768" enable-background="new 0 0 1024 768" xml:space="preserve">
<path fill="none" stroke="#000000" stroke-miterlimit="10" d="M417.8,53.3c132-2.4,264.2,4.4,395.3,20.2"/>
<path fill="none" stroke="#000000" stroke-miterlimit="10" d="M427.4,75.5c10.4-2.4,21.3-0.9,31.9,0.5c35.9,4.9,71.9,9.8,107.6,16.5
	c104,19.7,207,55.2,312.7,49c-0.6-2.7-2.2-5-4.6-6.4"/>
<path fill="none" stroke="#000000" stroke-miterlimit="10" d="M62.6,152.2c35.7,1.4,71.4-0.4,106.8-5.2c11.6-1.6,23.2-3.5,34.8-3.6
	c11.1-0.1,22.2,1.4,33.2,2.3c14.9,1.1,29.8,1,44.7-0.4"/>
<path fill="none" stroke="#000000" stroke-miterlimit="10" d="M62.6,161.2c73.2-0.7,146.3-1.4,219.5-2.1"/>
<path fill="none" stroke="#000000" stroke-miterlimit="10" d="M62.9,176.5c21.8,1.9,43.7,3.5,65.4,1.3c9.2-1,18.2-2.6,27.4-3.9
	c42-5.8,84.7-3.2,127-0.6"/>
<path fill="none" stroke="#000000" stroke-miterlimit="10" d="M282.6,190.4c-50.4-8.2-102.1-9.2-152.8-3
	c-13.7,1.7-27.3,3.9-41.1,4.1c-9.2,0.2-19.3-0.9-25.9-7.3"/>
<path fill="none" stroke="#000000" stroke-miterlimit="10" d="M63.6,204.8c15.2,2.8,30.6,4.2,46,4.3c13,0.1,26-0.8,39-1.6
	c44.6-2.5,89.3-3.1,134-1.7"/>
<path fill="none" stroke="#000000" stroke-miterlimit="10" d="M62.9,197.4c14.5,1.5,29.2,1.5,43.8,1.4c26.3-0.1,52.7-0.1,79-0.2
	c32.2-0.1,64.4-0.2,96.5-2.6"/>
<path fill="none" stroke="#000000" stroke-miterlimit="10" d="M64.1,216.7c3.5-0.4,7-0.8,10.4-1.2c13.9-1.3,27.9-1.4,41.9-1.6
	c40.2-0.3,80.6-0.6,120.4,5c15,2.1,30.5,5,45,0.8"/>
<path fill="none" stroke="#000000" stroke-miterlimit="10" d="M62.5,233c8.8-2.9,18-4.7,27.2-5.5c8.8-0.8,17.7-0.6,26.6-0.3
	c55.5,1.9,111,7.8,166.3,3.5"/>
<path fill="none" stroke="#000000" stroke-miterlimit="10" d="M62.3,246.2c74-4.9,148.3,9.1,222.3,3.6"/>
<path fill="none" stroke="#000000" stroke-miterlimit="10" d="M62,238.2c20.4,0.7,40.7-1.5,61.1-1.5c54.5,0,109.5,15.6,162.8,4.2"/>
<path fill="none" stroke="#000000" stroke-miterlimit="10" d="M64.3,259.5c19.1,3.3,38.6,4.1,58,4.9c16.2,0.7,32.4,1.3,48.7,2
	c38.1,1.6,76.4,3.1,114.3-0.7c0.5,0,1.1-0.2,1.2-0.7c0.1-0.5-0.9-0.5-0.7-0.1"/>
<path fill="none" stroke="#000000" stroke-miterlimit="10" d="M64.5,282.2c29.5-7,60.3-4.1,90.5-2.6c15.7,0.8,31.5,1.1,47.2,2.2
	c25.8,1.8,52.1,5.5,77.3-0.2"/>
<path fill="none" stroke="#000000" stroke-miterlimit="10" d="M64.4,272.4c27-0.5,54-6.9,80.9-3.8c11.4,1.3,22.5,4.3,33.8,5.7
	c9.9,1.3,19.9,1.3,29.9,1.4c25.8,0.2,51.8,0.4,77.4-2.6"/>
<path fill="none" stroke="#000000" stroke-miterlimit="10" d="M65.6,249.7c23.3,5.8,47.9,2.3,71.6,6.3c8.6,1.5,16.9,3.9,25.5,5.4
	c13,2.3,26.3,2.6,39.5,2.5c25.7-0.1,51.6-1.3,76.7-7"/>
<path fill="none" stroke="#000000" stroke-miterlimit="10" d="M62.3,139.7c74.7-1.5,149.3-2,224-1.6"/>
<path fill="none" stroke="#000000" stroke-miterlimit="10" d="M59,115.8c19.9,2,40-0.1,59.9-1.3c54.4-3.4,108.9-0.8,163.4,1.8"/>
<path fill="none" stroke="#000000" stroke-miterlimit="10" d="M284.1,126.1c-16.5-3.3-33.4-3.9-50.3-4.4
	c-38.6-1.3-77.3-2.7-115.9-0.4c-19.2,1.1-38.5,3.1-57.6,0.8"/>
<line fill="none" stroke="#000000" stroke-miterlimit="10" x1="111" y1="77.5" x2="110" y2="77.5"/>
</svg>
